<svg xmlns="http://www.w3.org/2000/svg" viewBox="0 0 32 32" id="Fox--Streamline-Twemoji" height="32" width="32">
  <desc>
    Fox Streamline Emoji: https://streamlinehq.com
  </desc>
  <path fill="#f4900c" d="M11.938666666666665 8.712888888888887c0.5848888888888889 2.344888888888889 -7.709333333333333 9.323555555555556 -9.994666666666665 3.6426666666666665C0.6186666666666666 9.063999999999998 -0.5386666666666666 2.1635555555555555 0.7768888888888889 1.8355555555555554c1.3155555555555554 -0.3271111111111111 10.577777777777778 4.531555555555555 11.161777777777777 6.877333333333333z" stroke-width="0.8889"></path>
  <path fill="#a0041e" d="M10.16622222222222 9.204444444444444c0.8533333333333333 1.3671111111111112 -1.6275555555555554 4.054222222222222 -2.9937777777777774 4.908444444444444 -1.3671111111111112 0.8542222222222221 -2.5768888888888886 -0.4906666666666667 -3.9235555555555552 -3.9235555555555552 -0.5884444444444444 -1.5013333333333334 -1.4808888888888887 -5.573333333333332 -0.9804444444444443 -5.886222222222222 0.4995555555555556 -0.31199999999999994 7.043555555555556 3.534222222222222 7.897777777777777 4.9013333333333335z" stroke-width="0.8889"></path>
  <path fill="#f4900c" d="M20.050666666666665 8.712888888888887C19.466666666666665 11.058666666666667 27.759999999999998 18.036444444444445 30.04622222222222 12.355555555555556c1.3244444444444443 -3.291555555555555 2.4817777777777774 -10.191999999999998 1.1662222222222223 -10.52 -1.3155555555555554 -0.3271111111111111 -10.576888888888888 4.531555555555555 -11.161777777777777 6.877333333333333z" stroke-width="0.8889"></path>
  <path fill="#a0041e" d="M21.823999999999998 9.204444444444444c-0.8533333333333333 1.3671111111111112 1.6275555555555554 4.054222222222222 2.9937777777777774 4.908444444444444 1.366222222222222 0.8542222222222221 2.576 -0.4906666666666667 3.9226666666666667 -3.9235555555555552 0.5884444444444444 -1.5004444444444442 1.4808888888888887 -5.572444444444444 0.9813333333333334 -5.8853333333333335 -0.5004444444444444 -0.3128888888888888 -7.043555555555556 3.533333333333333 -7.897777777777777 4.900444444444444z" stroke-width="0.8889"></path>
  <path fill="#f18f26" d="M28.75288888888889 23.921777777777777c0 -0.40355555555555556 -0.1671111111111111 -0.9697777777777777 -0.36177777777777775 -1.4995555555555555 0.5199999999999999 0.024888888888888887 1.350222222222222 0.16977777777777778 2.462222222222222 0.7262222222222221 -0.007111111111111111 -0.47644444444444445 -0.10488888888888888 -0.8746666666666666 -0.24266666666666667 -1.2382222222222221 0.036444444444444446 0.017777777777777778 0.06666666666666667 0.030222222222222223 0.10311111111111111 0.048888888888888885 -0.9804444444444443 -2.942222222222222 -2.941333333333333 -4.904 -2.941333333333333 -4.904h1.9608888888888887c-2.072 -4.144888888888889 -4.413333333333333 -7.124444444444444 -7.177777777777777 -8.496888888888888 -1.2355555555555553 -0.7759999999999999 -3.2782222222222224 -1.1893333333333334 -6.5537777777777775 -1.190222222222222h-0.0026666666666666666c-3.284444444444444 0 -5.329777777777778 0.416 -6.564444444444444 1.1964444444444444 -2.759111111111111 1.375111111111111 -5.096888888888889 4.351999999999999 -7.165333333333333 8.490666666666666H4.231111111111111s-1.9617777777777776 1.9608888888888887 -2.943111111111111 4.904c0.026666666666666665 -0.013333333333333332 0.048888888888888885 -0.022222222222222223 0.07466666666666667 -0.035555555555555556 -0.17866666666666667 0.34844444444444445 -0.27288888888888885 0.7528888888888888 -0.25066666666666665 1.224 1.1226666666666665 -0.5617777777777777 1.9706666666666666 -0.704 2.5004444444444442 -0.727111111111111 -0.16799999999999998 0.45599999999999996 -0.3048888888888889 0.9279999999999999 -0.3431111111111111 1.3111111111111111 -0.10933333333333332 0.3297777777777778 -0.16977777777777778 0.7217777777777777 -0.12 1.1937777777777776C6 23.63022222222222 7.333333333333333 23.81511111111111 8.88888888888889 24.59288888888889 9.96711111111111 27.813333333333333 12.627555555555555 30.22222222222222 16.000888888888888 30.22222222222222c3.3715555555555556 0 5.996444444444444 -2.4835555555555553 7.073777777777778 -5.703111111111111 1.2959999999999998 -1.1111111111111112 3.296 -0.7777777777777777 5.703111111111111 0.36977777777777776 0.058666666666666666 -0.36799999999999994 0.031999999999999994 -0.6871111111111111 -0.031999999999999994 -0.9715555555555555l0.007111111111111111 0.0044444444444444444z" stroke-width="0.8889"></path>
  <path fill="#ffd983" d="M27.77155555555555 20.978666666666665c0.005333333333333333 0 0.9848888888888889 0.0026666666666666666 2.941333333333333 0.9804444444444443 -1.1102222222222222 -2.5235555555555553 -6.688888888888889 -3.617777777777778 -8.827555555555554 -2.925333333333333 -1.040888888888889 1.7368888888888887 -1.1386666666666665 4.447111111111111 -3.007111111111111 5.886222222222222 -1.5475555555555556 1.272 -4.189333333333333 1.2959999999999998 -5.759111111111111 0 -2.0844444444444443 -1.710222222222222 -2.2746666666666666 -5.167111111111111 -3.006222222222222 -5.886222222222222 -2.1395555555555554 -0.6942222222222222 -7.716444444444443 0.40355555555555556 -8.827555555555554 2.925333333333333 1.9564444444444444 -0.9786666666666666 2.9368888888888884 -0.9804444444444443 2.941333333333333 -0.9804444444444443 0 0.0008888888888888888 -0.9804444444444443 1.9626666666666668 -0.9804444444444443 2.943111111111111l0.0008888888888888888 -0.0008888888888888888v0.0008888888888888888c2.1315555555555554 -1.398222222222222 4.547555555555555 -2.0186666666666664 6.603555555555555 -0.4017777777777778 1.4808888888888887 7.0408888888888885 10.92711111111111 6.706666666666666 12.296 0 2.056888888888889 -1.6159999999999999 4.471111111111111 -0.9973333333333334 6.603555555555555 0.4017777777777778v-0.0008888888888888888l0.0008888888888888888 0.0008888888888888888c0.0017777777777777776 -0.9804444444444443 -0.9786666666666666 -2.943111111111111 -0.9795555555555556 -2.943111111111111z" stroke-width="0.8889"></path>
  <path fill="#272b2b" d="M9.777777777777777 15.11111111111111s0 -1.3333333333333333 1.3333333333333333 -1.3333333333333333S12.444444444444443 15.11111111111111 12.444444444444443 15.11111111111111v1.3333333333333333s0 1.3333333333333333 -1.3333333333333333 1.3333333333333333 -1.3333333333333333 -1.3333333333333333 -1.3333333333333333 -1.3333333333333333V15.11111111111111zm9.777777777777777 0s0 -1.3333333333333333 1.3333333333333333 -1.3333333333333333S22.22222222222222 15.11111111111111 22.22222222222222 15.11111111111111v1.3333333333333333s0 1.3333333333333333 -1.3333333333333333 1.3333333333333333 -1.3333333333333333 -1.3333333333333333 -1.3333333333333333 -1.3333333333333333V15.11111111111111zm-6.276444444444444 9.607111111111111c-0.9075555555555554 0.18488888888888888 1.814222222222222 3.527111111111111 2.7217777777777776 3.527111111111111 0.9066666666666666 0 3.628444444444444 -3.342222222222222 2.7217777777777776 -3.527111111111111 -0.9075555555555554 -0.18488888888888888 -4.536 -0.18488888888888888 -5.443555555555555 0z" stroke-width="0.8889"></path>
</svg>